Subj06walk_36
version=1
nRows=31
nColumns=19
inDegrees=no
endheader
time	l_ground_force_vx	l_ground_force_vy	l_ground_force_vz	l_ground_force_px	l_ground_force_py	l_ground_force_pz	ground_force_vx	ground_force_vy	ground_force_vz	ground_force_px	ground_force_py	ground_force_pz	l_ground_torque_x	l_ground_torque_y	l_ground_torque_z	ground_torque_x	ground_torque_y	ground_torque_z	
15.24	-17.0330829882295	500.897881123133	24.3594110839604	-0.0144459606224118	0	-0.0770926878336033	0	0	0	0	0	0	0	2.91730910425075	0	0	0	0
15.25	-15.8695065475906	499.071551151085	24.779749332691	-0.0216363109502764	0	-0.0772019471297629	0	0	0	0	0	0	0	3.26914295033044	0	0	0	0
15.26	-14.7092915851401	497.90102248155	25.1882310690824	-0.0289603252136349	0	-0.0771085466100178	0	0	0	0	0	0	0	3.40097390356959	0	0	0	0
15.27	-13.2371784351188	497.390797427181	25.3758985393883	-0.0367343987132988	0	-0.0768827830837787	0	0	0	0	0	0	0	3.32056473367225	0	0	0	0
15.28	-11.2282728829537	497.14697960284	25.4396760542166	-0.0449094952690038	0	-0.0765265296421005	0	0	0	0	0	0	0	3.07497770984233	0	0	0	0
15.29	-8.84350803812107	496.604069414418	25.4856140108315	-0.0531652178332939	0	-0.0759665879896805	0	0	0	0	0	0	0	2.62416942037857	0	0	0	0
15.3	-6.19237310699469	495.715163972568	25.477190717462	-0.0613248965927335	0	-0.0753332371742257	0	0	0	0	0	0	0	2.10420735593916	0	0	0	0
15.31	-3.30841324928226	494.861723671806	25.3448864723995	-0.0694055806487128	0	-0.0746653875446336	0	0	0	0	0	0	0	1.7831314311549	0	0	0	0
15.32	-0.32824010658333	494.729487282193	25.0632096746756	-0.0774535404551339	0	-0.0739811795781013	0	0	0	0	0	0	0	1.50152744372856	0	0	0	0
15.33	2.24188483735084	495.720308600688	24.7103093720945	-0.0850875120109437	0	-0.0732017818331755	0	0	0	0	0	0	0	1.1048710324531	0	0	0	0
15.34	4.1834789840865	498.02669466498	24.2680130646603	-0.0920922952181638	0	-0.0723748936013877	0	0	0	0	0	0	0	0.677889273626855	0	0	0	0
15.35	5.82631717459342	501.534079984651	23.8547664088193	-0.0985074616321533	0	-0.071550531490518	0	0	0	0	0	0	0	0.42506661834474	0	0	0	0
15.36	7.68082683931697	506.023166225157	23.7067324486941	-0.104544402129943	0	-0.0707499429133329	0	0	0	0	0	0	0	0.263633481210855	0	0	0	0
15.37	10.0118768362641	511.214732579382	23.7866162389667	-0.110557697262794	0	-0.0698959744996473	0	0	0	0	0	0	0	0.0381591725554161	0	0	0	0
15.38	12.7984723202207	517.046029770364	24.0093491936296	-0.116838418191344	0	-0.0689677989490584	0	0	0	0	0	0	0	-0.168038873255241	0	0	0	0
15.39	15.9673607984849	523.777102352593	24.3718660843733	-0.123625017008769	0	-0.0680376735461749	0	0	0	0	0	0	0	-0.350423204426686	0	0	0	0
15.4	19.5105591305096	531.720400198223	24.7981884607708	-0.131047505961193	0	-0.0671811197672134	0	0	0	0	0	0	0	-0.54427489229229	0	0	0	0
15.41	23.2319349973508	540.989491783424	25.1794839404517	-0.138903126635001	0	-0.0663880436375082	0	0	0	0	0	0	0	-0.71771585812822	0	0	0	0
15.42	26.8850734124423	551.439452084417	25.282301324151	-0.146953117413547	0	-0.06564549457907	0	0	0	0	0	0	0	-0.808646040172773	0	0	0	0
15.43	30.2082020708812	562.546092411332	25.0564367390276	-0.154946349228074	0	-0.0648967325758959	0	0	0	0	0	0	0	-0.721308630704045	0	0	0	0
15.44	33.2253069426558	573.450740095569	24.6620256863014	-0.162831684444742	0	-0.0640912084178528	0	0	0	0	0	0	0	-0.544021264602182	0	0	0	0
15.45	36.1284834375894	583.077007049297	24.3417529813283	-0.17084365271056	0	-0.0631528433601194	0	0	0	0	0	0	0	-0.295736887690877	0	0	0	0
15.46	39.227700428344	590.642794420644	24.2040746436713	-0.17924577833891	0	-0.0621206287737812	0	0	0	0	0	0	0	-0.0372999230095708	0	0	0	0
15.47	42.9865734319604	595.708102733954	24.2575951531716	-0.18830920512955	0	-0.0610966113714949	0	0	0	0	0	0	0	0.167400212441759	0	0	0	0
15.48	47.5945724139845	597.969487714906	24.4145805341463	-0.197960453014866	0	-0.0601312693445304	0	0	0	0	0	0	0	0.332507514798876	0	0	0	0
15.49	52.8397211410137	597.105874114387	24.4102535795673	-0.207856748353673	0	-0.059208742829192	9.32147036254852	38.6679771724054	0.158540845708634	0.184967976885639	0	0.053389400189398	0	0.347388099690265	0	0	0.365594269586469	0
15.5	58.2344537802462	592.480950716255	24.0239186281668	-0.217537628352215	0	-0.0582396202886317	14.0074238775351	68.189640162254	1.0808764907604	0.154879045052441	0	0.0537577989809396	0	0.133728219062817	0	0	0.556263925385227	0
15.51	63.2011085803728	583.155718652259	23.0219198524471	-0.226559730416057	0	-0.0571771769787305	14.4092833304524	100.427933328606	3.09611659567868	0.137347039144337	0	0.0526012439444557	0	-0.249320980934158	0	0	0.335963428477282	0
15.52	67.4504889905573	568.107635633866	21.3088492828542	-0.234961305996778	0	-0.0561184843741035	10.7900264325375	133.733287014301	6.25130835170584	0.126145420575924	0	0.0509475967621057	0	-0.766519299389468	0	0	-0.2651610451161	0
15.53	70.9353225976376	546.264406734758	18.8029380693323	-0.243206822710832	0	-0.0551235654750624	4.59999298886325	167.86538142375	10.1476240990237	0.1195449728157	0	0.0495221750498061	0	-1.43716775063396	0	0	-1.0934038822165	0
15.54	73.4376136746755	516.763479096849	15.6778410272502	-0.251596464236312	0	-0.0541726702835397	-3.00945244752281	203.175202745058	13.9536326435295	0.116414674207071	0	0.0489307537253674	0	-2.3155530858828	0	0	-2.10733920260476	0
